<svg xmlns="http://www.w3.org/2000/svg" viewBox="0 0 96 96" role="img" aria-label="Avatar Bui Anh Khoa">
  <defs>
    <linearGradient id="bg" x1="0" x2="1" y1="0" y2="1">
      <stop offset="0" stop-color="#cffafe"/>
      <stop offset="1" stop-color="#fef9c3"/>
    </linearGradient>
  </defs>
  <rect width="96" height="96" rx="48" fill="url(#bg)"/>
  <circle cx="48" cy="44" r="19" fill="#d08b5f"/>
  <path d="M29 37c2-15 12-22 26-20 11 2 17 10 16 21-7-4-15-5-24-5-7 0-13 1-18 4Z" fill="#111827"/>
  <path d="M25 79c7-14 15-21 23-21s16 7 23 21c-6 5-14 8-23 8s-17-3-23-8Z" fill="#2563eb"/>
  <circle cx="40" cy="45" r="3" fill="#111827"/>
  <circle cx="56" cy="45" r="3" fill="#111827"/>
  <path d="M42 55c4 2 8 2 12 0" fill="none" stroke="#7c2d12" stroke-width="3" stroke-linecap="round"/>
</svg>
