<svg xmlns="http://www.w3.org/2000/svg" viewBox="0 0 96 96" role="img" aria-label="Avatar Phan Nhat Quang">
  <defs>
    <linearGradient id="bg" x1="0" x2="1" y1="0" y2="1">
      <stop offset="0" stop-color="#ede9fe"/>
      <stop offset="1" stop-color="#fce7f3"/>
    </linearGradient>
  </defs>
  <rect width="96" height="96" rx="48" fill="url(#bg)"/>
  <circle cx="48" cy="43" r="20" fill="#f1c094"/>
  <path d="M28 38c4-16 16-24 30-19 8 3 13 10 13 20-8-6-17-9-27-8-6 1-11 3-16 7Z" fill="#334155"/>
  <path d="M30 78c4-13 12-20 18-20s14 7 18 20c-5 5-11 8-18 8s-13-3-18-8Z" fill="#7c3aed"/>
  <path d="M37 44h6M53 44h6" stroke="#111827" stroke-width="3" stroke-linecap="round"/>
  <path d="M42 54c4 3 8 3 12 0" fill="none" stroke="#7c2d12" stroke-width="3" stroke-linecap="round"/>
</svg>
