<svg xmlns="http://www.w3.org/2000/svg" viewBox="0 0 96 96" role="img" aria-label="Avatar Vo Thanh Binh">
  <defs>
    <linearGradient id="bg" x1="0" x2="1" y1="0" y2="1">
      <stop offset="0" stop-color="#fee2e2"/>
      <stop offset="1" stop-color="#ffedd5"/>
    </linearGradient>
  </defs>
  <rect width="96" height="96" rx="48" fill="url(#bg)"/>
  <circle cx="48" cy="44" r="20" fill="#e7aa79"/>
  <path d="M30 35c4-13 14-20 28-16 8 2 13 8 14 17-13-3-24-7-35-1-3 2-5 3-7 0Z" fill="#312e81"/>
  <path d="M26 78c7-13 14-20 22-20s15 7 22 20c-6 5-13 8-22 8s-16-3-22-8Z" fill="#f97316"/>
  <circle cx="40" cy="45" r="3" fill="#111827"/>
  <circle cx="56" cy="45" r="3" fill="#111827"/>
  <path d="M42 54c4 2 8 2 12 0" fill="none" stroke="#7c2d12" stroke-width="3" stroke-linecap="round"/>
</svg>
