<svg xmlns="http://www.w3.org/2000/svg" viewBox="0 0 96 96" role="img" aria-label="Avatar Lam Khanh Linh">
  <defs>
    <linearGradient id="bg" x1="0" x2="1" y1="0" y2="1">
      <stop offset="0" stop-color="#fce7f3"/>
      <stop offset="1" stop-color="#dbeafe"/>
    </linearGradient>
  </defs>
  <rect width="96" height="96" rx="48" fill="url(#bg)"/>
  <circle cx="48" cy="44" r="19" fill="#f0bd8c"/>
  <path d="M25 51c-2-18 8-34 24-34 15 0 25 13 22 34-5-8-9-14-12-23-8 7-17 10-31 11-2 4-3 8-3 12Z" fill="#3b0764"/>
  <path d="M28 79c6-14 13-21 20-21s14 7 20 21c-6 5-12 8-20 8s-14-3-20-8Z" fill="#db2777"/>
  <circle cx="40" cy="45" r="3" fill="#111827"/>
  <circle cx="56" cy="45" r="3" fill="#111827"/>
  <path d="M42 55c4 3 8 3 12 0" fill="none" stroke="#7c2d12" stroke-width="3" stroke-linecap="round"/>
</svg>
