<svg xmlns="http://www.w3.org/2000/svg" viewBox="0 0 96 96" role="img" aria-label="Avatar Do Minh Khang">
  <defs>
    <linearGradient id="bg" x1="0" x2="1" y1="0" y2="1">
      <stop offset="0" stop-color="#dcfce7"/>
      <stop offset="1" stop-color="#e0f2fe"/>
    </linearGradient>
  </defs>
  <rect width="96" height="96" rx="48" fill="url(#bg)"/>
  <circle cx="48" cy="43" r="20" fill="#d99a6c"/>
  <path d="M27 38c1-13 10-22 24-22 11 0 19 7 20 19-10-2-18-6-25-11-5 7-10 11-19 14Z" fill="#0f172a"/>
  <path d="M28 78c4-14 13-21 20-21s16 7 20 21c-6 5-13 8-20 8s-14-3-20-8Z" fill="#0f766e"/>
  <path d="M37 45h6M53 45h6" stroke="#111827" stroke-width="3" stroke-linecap="round"/>
  <path d="M42 54c4 3 8 3 12 0" fill="none" stroke="#7c2d12" stroke-width="3" stroke-linecap="round"/>
</svg>
