<svg xmlns="http://www.w3.org/2000/svg" viewBox="0 0 96 96" role="img" aria-label="Avatar Hoang Gia Bao">
  <defs>
    <linearGradient id="bg" x1="0" x2="1" y1="0" y2="1">
      <stop offset="0" stop-color="#dbeafe"/>
      <stop offset="1" stop-color="#fef3c7"/>
    </linearGradient>
  </defs>
  <rect width="96" height="96" rx="48" fill="url(#bg)"/>
  <circle cx="48" cy="42" r="21" fill="#f0bd8c"/>
  <path d="M27 41c2-17 12-27 28-24 12 2 17 10 16 23-8-7-18-10-30-9-6 0-10 3-14 10Z" fill="#1f2937"/>
  <path d="M32 74c5-12 13-18 24-18s19 6 24 18c-8 8-16 12-32 12s-24-4-16-12Z" fill="#214388"/>
  <circle cx="40" cy="43" r="3" fill="#111827"/>
  <circle cx="56" cy="43" r="3" fill="#111827"/>
  <path d="M40 53c5 4 11 4 16 0" fill="none" stroke="#7c2d12" stroke-width="3" stroke-linecap="round"/>
</svg>
