<svg xmlns="http://www.w3.org/2000/svg" viewBox="0 0 96 96" role="img" aria-label="Avatar Truong Hai Nam">
  <defs>
    <linearGradient id="bg" x1="0" x2="1" y1="0" y2="1">
      <stop offset="0" stop-color="#e0e7ff"/>
      <stop offset="1" stop-color="#dcfce7"/>
    </linearGradient>
  </defs>
  <rect width="96" height="96" rx="48" fill="url(#bg)"/>
  <circle cx="48" cy="43" r="20" fill="#c9855c"/>
  <path d="M28 39c1-15 11-23 25-22 12 1 19 9 19 21-10-4-20-5-32-3-5 1-9 2-12 4Z" fill="#1e293b"/>
  <path d="M27 78c6-13 13-20 21-20s15 7 21 20c-6 5-13 8-21 8s-15-3-21-8Z" fill="#16a34a"/>
  <path d="M37 44h6M53 44h6" stroke="#111827" stroke-width="3" stroke-linecap="round"/>
  <path d="M42 54c4 3 8 3 12 0" fill="none" stroke="#7c2d12" stroke-width="3" stroke-linecap="round"/>
</svg>
